# xmcd
#
# Track frame offsets:
#	150
#	18097
#	30582
#	44097
#	57760
#	69222
#	81517
#	91415
#	104505
#	116260
#	129197
#	142085
#	154512
#	171677
#	183142
#	198297
#	209502
#	220707
#	234890
#	246867
#
# Disc length: 3455 seconds
#
# Revision: 1
# Processed by: cddbd v1.5.2PL0 Copyright (c) Steve Scherf et al.
# Submitted via: audiograbber 1.83.01
#
DISCID=100d7d14
DTITLE=Reader's Digest Country - An All-Star Treasury - Disk 2
DYEAR=2007
DGENRE=Country
TTITLE0=Willie Nelson - Crazy
TTITLE1=Willie Nelson - Half A Man
TTITLE2=Willie Nelson - Undo The Right
TTITLE3=Willie Nelson - A Moment Isn't Very Long
TTITLE4=Willie Nelson - Just Out Of Reach
TTITLE5=Merle Haggard - Okie From Muskogee
TTITLE6=Merle Haggard - Mama Tried
TTITLE7=Merle Haggard - The Way I Am
TTITLE8=Merle Haggard - Carolyn
TTITLE9=Merle Haggard - Sing Me Back Home
TTITLE10=Charlie Rich - The Most Beautiful Girl
TTITLE11=Charlie Rich - Behind Closed Doors
TTITLE12=Charlie Rich - My Elusive Dreams
TTITLE13=Charlie Rich - Rollin' With The Flow
TTITLE14=Charlie Rich - On My Knees (with Janie Fricke)
TTITLE15=Conway Twitty - Hello Darlin'
TTITLE16=Conway Twitty - It's Only Make Believe
TTITLE17=Conway Twitty - You've Never Been This Far Before
TTITLE18=Conway Twitty - She Needs Someone To Hold Her (When She Cries)
TTITLE19=Conway Twitty - This Time I've Hurt Her More Than She Loves Me
EXTD=
EXTT0=
EXTT1=
EXTT2=
EXTT3=
EXTT4=
EXTT5=
EXTT6=
EXTT7=
EXTT8=
EXTT9=
EXTT10=
EXTT11=
EXTT12=
EXTT13=
EXTT14=
EXTT15=
EXTT16=
EXTT17=
EXTT18=
EXTT19=
PLAYORDER=
